<?xml version="1.0" encoding="UTF-8" standalone="no"?>
<svg
   xmlns:dc="http://purl.org/dc/elements/1.1/"
   xmlns:cc="http://creativecommons.org/ns#"
   xmlns:rdf="http://www.w3.org/1999/02/22-rdf-syntax-ns#"
   xmlns:svg="http://www.w3.org/2000/svg"
   xmlns="http://www.w3.org/2000/svg"
   xmlns:sodipodi="http://sodipodi.sourceforge.net/DTD/sodipodi-0.dtd"
   xmlns:inkscape="http://www.inkscape.org/namespaces/inkscape"
   viewBox="0 0 55 53.582006"
   version="1.1"
   id="svg2435"
   sodipodi:docname="C.svg"
   inkscape:version="1.0.1 (3bc2e813f5, 2020-09-07)"
   width="55"
   height="53.582005">
  <metadata
     id="metadata2439">
    <rdf:RDF>
      <cc:Work
         rdf:about="">
        <dc:format>image/svg+xml</dc:format>
        <dc:type
           rdf:resource="http://purl.org/dc/dcmitype/StillImage" />
        <dc:title>C</dc:title>
      </cc:Work>
    </rdf:RDF>
  </metadata>
  <sodipodi:namedview
     pagecolor="#ffffff"
     bordercolor="#666666"
     borderopacity="1"
     objecttolerance="10"
     gridtolerance="10"
     guidetolerance="10"
     inkscape:pageopacity="0"
     inkscape:pageshadow="2"
     inkscape:window-width="1366"
     inkscape:window-height="705"
     id="namedview2437"
     showgrid="false"
     inkscape:zoom="7.2951907"
     inkscape:cx="14.854294"
     inkscape:cy="25.200249"
     inkscape:window-x="-8"
     inkscape:window-y="-8"
     inkscape:window-maximized="1"
     inkscape:current-layer="svg2435"
     inkscape:document-rotation="0"
     fit-margin-top="0"
     fit-margin-left="0"
     fit-margin-right="0"
     fit-margin-bottom="0" />
  <defs
     id="defs2361">
    <style
       id="style2302">.cls-1{mask:url(#mask);filter:url(#luminosity-noclip-2);}.cls-2,.cls-33,.cls-4{mix-blend-mode:multiply;}.cls-2{fill:url(#linear-gradient);}.cls-3{isolation:isolate;}.cls-25,.cls-5{fill:#fff;}.cls-5{opacity:0;}.cls-6{fill:#fbfcfc;opacity:0.05;}.cls-7{fill:#f8f8f8;opacity:0.11;}.cls-8{fill:#f4f5f5;opacity:0.16;}.cls-9{fill:#f1f1f2;opacity:0.21;}.cls-10{fill:#edeeee;opacity:0.26;}.cls-11{fill:#eaeaeb;opacity:0.32;}.cls-12{fill:#e6e7e8;opacity:0.37;}.cls-13{fill:#e3e4e4;opacity:0.42;}.cls-14{fill:#dfe0e1;opacity:0.47;}.cls-15{fill:#dcddde;opacity:0.53;}.cls-16{fill:#d8d9db;opacity:0.58;}.cls-17{fill:#d5d6d7;opacity:0.63;}.cls-18{fill:#d1d3d4;opacity:0.68;}.cls-19{fill:#cecfd1;opacity:0.74;}.cls-20{fill:#cacccd;opacity:0.79;}.cls-21{fill:#c7c8ca;opacity:0.84;}.cls-22{fill:#c3c5c7;opacity:0.89;}.cls-23{fill:#c0c1c3;opacity:0.95;}.cls-24{fill:#bcbec0;}.cls-26{fill:url(#linear-gradient-2);}.cls-27{fill:#a3bad4;}.cls-28{fill:#c9e2ff;}.cls-29{fill:#007dc4;}.cls-30{fill:#00a2ff;}.cls-31{fill:#b8d9ff;opacity:0.2;mix-blend-mode:screen;}.cls-32{mask:url(#mask-2);}.cls-33{fill:url(#linear-gradient-3);}.cls-34{filter:url(#luminosity-noclip);}</style>
    <filter
       id="luminosity-noclip"
       x="12.33"
       y="-8216.4199"
       width="55.029999"
       height="32766"
       filterUnits="userSpaceOnUse"
       color-interpolation-filters="sRGB">
      <feFlood
         flood-color="#fff"
         result="bg"
         id="feFlood2304" />
      <feBlend
         in="SourceGraphic"
         in2="bg"
         id="feBlend2306"
         mode="normal" />
    </filter>
    <mask
       id="mask"
       x="12.33"
       y="-8216.42"
       width="55.03"
       height="32766"
       maskUnits="userSpaceOnUse">
      <g
         class="cls-34"
         id="g2309" />
    </mask>
    <linearGradient
       id="linear-gradient"
       x1="19.26"
       y1="48.41"
       x2="60.150002"
       y2="7.5300002"
       gradientUnits="userSpaceOnUse">
      <stop
         offset="0.39"
         stop-color="#b3b3b3"
         id="stop2312" />
      <stop
         offset="0.49"
         stop-color="#b6b6b6"
         id="stop2314" />
      <stop
         offset="0.56"
         stop-color="#bfbfbf"
         id="stop2316" />
      <stop
         offset="0.62"
         stop-color="#cfcfcf"
         id="stop2318" />
      <stop
         offset="0.67"
         stop-color="#e4e4e4"
         id="stop2320" />
      <stop
         offset="0.72"
         stop-color="#fff"
         id="stop2322" />
      <stop
         offset="0.76"
         stop-color="#fff"
         id="stop2324" />
      <stop
         offset="0.99"
         stop-color="#fff"
         id="stop2326" />
    </linearGradient>
    <linearGradient
       id="linear-gradient-2"
       x1="20.059999"
       y1="47.619999"
       x2="54.099998"
       y2="13.58"
       gradientUnits="userSpaceOnUse"
       gradientTransform="translate(-12.36,-1.0389971)">
      <stop
         offset="0"
         stop-color="#e6e6e6"
         id="stop2329" />
      <stop
         offset="1"
         stop-color="#fafafa"
         id="stop2331" />
    </linearGradient>
    <filter
       id="luminosity-noclip-2"
       x="12.33"
       y="0"
       width="55.029999"
       height="55.66"
       filterUnits="userSpaceOnUse"
       color-interpolation-filters="sRGB">
      <feFlood
         flood-color="#fff"
         result="bg"
         id="feFlood2334" />
      <feBlend
         in="SourceGraphic"
         in2="bg"
         id="feBlend2336"
         mode="normal" />
    </filter>
    <mask
       id="mask-2"
       x="12.33"
       y="0"
       width="55.03"
       height="55.66"
       maskUnits="userSpaceOnUse">
      <g
         class="cls-1"
         mask="url(#mask)"
         id="g2341">
        <path
           class="cls-2"
           d="m 67.36,27.51 a 27.52,27.52 0 0 0 -55,0 c 0,0.11 0,0.22 0,0.32 0,0.1 0,0.21 0,0.32 a 27.52,27.52 0 0 0 55,0 z"
           id="path2339" />
      </g>
    </mask>
    <linearGradient
       id="linear-gradient-3"
       x1="19.26"
       y1="48.41"
       x2="60.150002"
       y2="7.5300002"
       gradientUnits="userSpaceOnUse">
      <stop
         offset="0.39"
         stop-color="#fff"
         id="stop2344" />
      <stop
         offset="0.5"
         stop-color="#fcfcfc"
         id="stop2346" />
      <stop
         offset="0.58"
         stop-color="#f3f3f3"
         id="stop2348" />
      <stop
         offset="0.65"
         stop-color="#e3e3e3"
         id="stop2350" />
      <stop
         offset="0.71"
         stop-color="#cecece"
         id="stop2352" />
      <stop
         offset="0.72"
         stop-color="#c9c9c9"
         id="stop2354" />
      <stop
         offset="0.76"
         stop-color="#c9c9c9"
         id="stop2356" />
      <stop
         offset="0.99"
         stop-color="#c9c9c9"
         id="stop2358" />
    </linearGradient>
  </defs>
  <title
     id="title2363">C</title>
  <path
     class="cls-26"
     d="m 55,26.471003 a 27.52,27.52 0 0 0 -55,0 c 0,0.11 0,0.22 0,0.32 0,0.1 0,0.21 0,0.32 a 27.52,27.52 0 0 0 55,0 z"
     id="path2409"
     style="isolation:isolate;fill:url(#linear-gradient-2)" />
  <g
     class="cls-32"
     mask="url(#mask-2)"
     id="g2428"
     style="isolation:isolate"
     transform="translate(-12.36,-1.0389971)">
    <path
       class="cls-33"
       d="m 67.36,27.51 a 27.52,27.52 0 0 0 -55,0 c 0,0.11 0,0.22 0,0.32 0,0.1 0,0.21 0,0.32 a 27.52,27.52 0 0 0 55,0 z"
       id="path2426"
       style="fill:url(#linear-gradient-3)" />
  </g>
  <g
     id="C-2"
     data-name="C"
     style="isolation:isolate"
     transform="translate(-12.36,-1.0389971)">
    <path
       class="cls-27"
       d="M 62.94,28.15 A 23.09,23.09 0 1 0 39.85,51.24 23.09,23.09 0 0 0 62.94,28.15 Z"
       id="path2411" />
    <path
       class="cls-28"
       d="M 62.94,27.51 A 23.09,23.09 0 1 0 39.85,50.6 23.09,23.09 0 0 0 62.94,27.51 Z"
       id="path2413" />
    <path
       class="cls-29"
       d="M 30.62,17 A 2.56,2.56 0 1 1 33.18,14.44 2.56,2.56 0 0 1 30.62,17 Z m 0,-3.94 A 1.38,1.38 0 1 0 32,14.45 1.38,1.38 0 0 0 30.62,13.07 Z"
       id="path2415" />
    <path
       class="cls-29"
       d="m 46.88,32.94 c -0.74,2.72 -3.23,5.41 -5.88,5.41 -3.27,0 -5.92,-3 -5.92,-6.7 V 26.82 C 35.08,23.12 37.7,20 41,20 c 2.68,0 4.63,2 5.34,4.76 h 5.15 l -0.06,-0.52 c 0,0 -5.57,-9.48 -10.64,-9.48 -6,0 -10.84,5.62 -10.84,12.55 v 3.89 c 0,6.93 4.87,12.39 10.86,12.39 5.26,0 10.1,-4.81 10.86,-10.63 z"
       id="path2417" />
    <path
       class="cls-30"
       d="M 30.62,16.58 A 2.56,2.56 0 1 1 33.18,14 2.56,2.56 0 0 1 30.62,16.58 Z m 0,-3.94 A 1.38,1.38 0 1 0 32,14 1.38,1.38 0 0 0 30.62,12.64 Z"
       id="path2419" />
    <path
       class="cls-30"
       d="M 46.64,32.93 A 6.05,6.05 0 0 1 41,37.63 c -3.27,0 -5.92,-3 -5.92,-6.7 v -4.84 c 0,-3.7 2.65,-6.69 5.92,-6.69 a 6.07,6.07 0 0 1 5.67,4.82 H 51.4 C 50.45,18.41 46.05,14 40.76,14 c -6,0 -10.84,5.62 -10.84,12.54 v 3.9 C 29.92,37.39 34.78,43 40.76,43 46,43 50.4,38.67 51.39,32.93 Z"
       id="path2421" />
    <path
       class="cls-31"
       d="M 39.85,28.19 A 138.43,138.43 0 0 1 62.79,30 21.09,21.09 0 0 0 62.94,27.47 23.09,23.09 0 1 0 16.76,27.47 23.4,23.4 0 0 0 16.9,30 138.46,138.46 0 0 1 39.85,28.19 Z"
       id="path2423" />
  </g>
</svg>
