<?xml version="1.0" encoding="UTF-8" standalone="no"?>
<svg
   xmlns:dc="http://purl.org/dc/elements/1.1/"
   xmlns:cc="http://creativecommons.org/ns#"
   xmlns:rdf="http://www.w3.org/1999/02/22-rdf-syntax-ns#"
   xmlns:svg="http://www.w3.org/2000/svg"
   xmlns="http://www.w3.org/2000/svg"
   xmlns:sodipodi="http://sodipodi.sourceforge.net/DTD/sodipodi-0.dtd"
   xmlns:inkscape="http://www.inkscape.org/namespaces/inkscape"
   viewBox="0 0 72.185817 55.385312"
   version="1.1"
   id="svg6497"
   sodipodi:docname="moon_cloud.svg"
   inkscape:version="1.0.1 (3bc2e813f5, 2020-09-07)"
   width="72.185814"
   height="55.385311">
  <metadata
     id="metadata6501">
    <rdf:RDF>
      <cc:Work
         rdf:about="">
        <dc:format>image/svg+xml</dc:format>
        <dc:type
           rdf:resource="http://purl.org/dc/dcmitype/StillImage" />
        <dc:title>moon_cloud</dc:title>
      </cc:Work>
    </rdf:RDF>
  </metadata>
  <sodipodi:namedview
     pagecolor="#ffffff"
     bordercolor="#666666"
     borderopacity="1"
     objecttolerance="10"
     gridtolerance="10"
     guidetolerance="10"
     inkscape:pageopacity="0"
     inkscape:pageshadow="2"
     inkscape:window-width="1366"
     inkscape:window-height="705"
     id="namedview6499"
     showgrid="false"
     inkscape:zoom="3.6626791"
     inkscape:cx="68.367974"
     inkscape:cy="16.150092"
     inkscape:window-x="-8"
     inkscape:window-y="-8"
     inkscape:window-maximized="1"
     inkscape:current-layer="svg6497"
     inkscape:document-rotation="0"
     fit-margin-top="0"
     fit-margin-left="0"
     fit-margin-right="0"
     fit-margin-bottom="0" />
  <defs
     id="defs6425">
    <style
       id="style6366">.cls-1{mask:url(#mask);filter:url(#luminosity-noclip-2);}.cls-2,.cls-34,.cls-4{mix-blend-mode:multiply;}.cls-2{fill:url(#linear-gradient);}.cls-3{isolation:isolate;}.cls-25,.cls-5{fill:#fff;}.cls-5{opacity:0;}.cls-6{fill:#fbfcfc;opacity:0.05;}.cls-7{fill:#f8f8f8;opacity:0.11;}.cls-8{fill:#f4f5f5;opacity:0.16;}.cls-9{fill:#f1f1f2;opacity:0.21;}.cls-10{fill:#edeeee;opacity:0.26;}.cls-11{fill:#eaeaeb;opacity:0.32;}.cls-12{fill:#e6e7e8;opacity:0.37;}.cls-13{fill:#e3e4e4;opacity:0.42;}.cls-14{fill:#dfe0e1;opacity:0.47;}.cls-15{fill:#dcddde;opacity:0.53;}.cls-16{fill:#d8d9db;opacity:0.58;}.cls-17{fill:#d5d6d7;opacity:0.63;}.cls-18{fill:#d1d3d4;opacity:0.68;}.cls-19{fill:#cecfd1;opacity:0.74;}.cls-20{fill:#cacccd;opacity:0.79;}.cls-21{fill:#c7c8ca;opacity:0.84;}.cls-22{fill:#c3c5c7;opacity:0.89;}.cls-23{fill:#c0c1c3;opacity:0.95;}.cls-24{fill:#bcbec0;}.cls-26{fill:url(#linear-gradient-2);}.cls-27{fill:#d89f00;}.cls-28,.cls-29{fill:#fb0;}.cls-29,.cls-32{opacity:0.2;mix-blend-mode:screen;}.cls-30{fill:#a3bad4;}.cls-31,.cls-32{fill:#b8d9ff;}.cls-33{mask:url(#mask-2);}.cls-34{fill:url(#linear-gradient-3);}.cls-35{filter:url(#luminosity-noclip);}</style>
    <filter
       id="luminosity-noclip"
       x="12.33"
       y="-8297.2002"
       width="72.190002"
       height="32766"
       filterUnits="userSpaceOnUse"
       color-interpolation-filters="sRGB">
      <feFlood
         flood-color="#fff"
         result="bg"
         id="feFlood6368" />
      <feBlend
         in="SourceGraphic"
         in2="bg"
         id="feBlend6370"
         mode="normal" />
    </filter>
    <mask
       id="mask"
       x="12.33"
       y="-8297.2"
       width="72.19"
       height="32766"
       maskUnits="userSpaceOnUse">
      <g
         class="cls-35"
         id="g6373" />
    </mask>
    <linearGradient
       id="linear-gradient"
       x1="23.030001"
       y1="59.349998"
       x2="71.949997"
       y2="10.44"
       gradientUnits="userSpaceOnUse">
      <stop
         offset="0.39"
         stop-color="#b3b3b3"
         id="stop6376" />
      <stop
         offset="0.49"
         stop-color="#b6b6b6"
         id="stop6378" />
      <stop
         offset="0.56"
         stop-color="#bfbfbf"
         id="stop6380" />
      <stop
         offset="0.62"
         stop-color="#cfcfcf"
         id="stop6382" />
      <stop
         offset="0.67"
         stop-color="#e4e4e4"
         id="stop6384" />
      <stop
         offset="0.72"
         stop-color="#fff"
         id="stop6386" />
      <stop
         offset="0.76"
         stop-color="#fff"
         id="stop6388" />
      <stop
         offset="0.99"
         stop-color="#fff"
         id="stop6390" />
    </linearGradient>
    <linearGradient
       id="linear-gradient-2"
       x1="27.389999"
       y1="55"
       x2="64.580002"
       y2="17.809999"
       gradientUnits="userSpaceOnUse"
       gradientTransform="translate(-12.334183,0.00349796)">
      <stop
         offset="0"
         stop-color="#e6e6e6"
         id="stop6393" />
      <stop
         offset="1"
         stop-color="#fafafa"
         id="stop6395" />
    </linearGradient>
    <filter
       id="luminosity-noclip-2"
       x="12.33"
       y="0"
       width="72.190002"
       height="55.380001"
       filterUnits="userSpaceOnUse"
       color-interpolation-filters="sRGB">
      <feFlood
         flood-color="#fff"
         result="bg"
         id="feFlood6398" />
      <feBlend
         in="SourceGraphic"
         in2="bg"
         id="feBlend6400"
         mode="normal" />
    </filter>
    <mask
       id="mask-2"
       x="12.33"
       y="0"
       width="72.19"
       height="55.38"
       maskUnits="userSpaceOnUse">
      <g
         class="cls-1"
         mask="url(#mask)"
         id="g6405">
        <path
           class="cls-2"
           d="m 84.52,37.22 c 0,-5.41 -4.57,-9.9 -10.53,-10.71 a 12.09,12.09 0 0 0 -1.21,-0.11 11.14,11.14 0 0 0 -6,-3.51 10.73,10.73 0 0 0 -4.68,-4.56 26.07,26.07 0 0 0 -21.05,-18.28 4.43,4.43 0 0 0 -4.71,6.23 17.29,17.29 0 0 1 1.6,7.29 c 0,0.3 0,0.59 0,0.89 0,0 0,0 0,0.07 A 17.4,17.4 0 0 1 20.57,31 17.71,17.71 0 0 1 17.85,30.78 h -0.2 -0.21 a 4.42,4.42 0 0 0 -4.73,6.15 26.94,26.94 0 0 0 24.38,15.78 25.47,25.47 0 0 0 6,-0.73 10,10 0 0 0 4.74,1.2 10.39,10.39 0 0 0 1.37,-0.09 15.11,15.11 0 0 0 8.15,2.29 14.57,14.57 0 0 0 9.74,-3.53 10.09,10.09 0 0 0 2.2,0.24 10.27,10.27 0 0 0 8.71,-4.9 10.73,10.73 0 0 0 6.5,-9.53 c 0,-0.06 0,-0.12 0,-0.18 0,-0.06 0.02,-0.18 0.02,-0.26 z"
           id="path6403" />
      </g>
    </mask>
    <linearGradient
       id="linear-gradient-3"
       x1="23.030001"
       y1="59.349998"
       x2="71.949997"
       y2="10.44"
       gradientUnits="userSpaceOnUse">
      <stop
         offset="0.39"
         stop-color="#fff"
         id="stop6408" />
      <stop
         offset="0.5"
         stop-color="#fcfcfc"
         id="stop6410" />
      <stop
         offset="0.58"
         stop-color="#f3f3f3"
         id="stop6412" />
      <stop
         offset="0.65"
         stop-color="#e3e3e3"
         id="stop6414" />
      <stop
         offset="0.71"
         stop-color="#cecece"
         id="stop6416" />
      <stop
         offset="0.72"
         stop-color="#c9c9c9"
         id="stop6418" />
      <stop
         offset="0.76"
         stop-color="#c9c9c9"
         id="stop6420" />
      <stop
         offset="0.99"
         stop-color="#c9c9c9"
         id="stop6422" />
    </linearGradient>
  </defs>
  <title
     id="title6427">moon_cloud</title>
  <path
     class="cls-26"
     d="m 72.185817,37.223498 c 0,-5.41 -4.57,-9.9 -10.53,-10.71 a 12.09,12.09 0 0 0 -1.21,-0.11 11.14,11.14 0 0 0 -6,-3.51 10.73,10.73 0 0 0 -4.68,-4.56 26.07,26.07 0 0 0 -21.05,-18.28000004 4.43,4.43 0 0 0 -4.71,6.23000004 17.29,17.29 0 0 1 1.6,7.29 c 0,0.3 0,0.59 0,0.89 0,0 0,0 0,0.07 a 17.4,17.4 0 0 1 -17.3700003,16.47 17.71,17.71 0 0 1 -2.72,-0.22 h -0.2 -0.21 a 4.42,4.42 0 0 0 -4.73000003,6.15 26.94,26.94 0 0 0 24.38000033,15.78 25.47,25.47 0 0 0 6,-0.73 10,10 0 0 0 4.74,1.2 10.39,10.39 0 0 0 1.37,-0.09 15.11,15.11 0 0 0 8.15,2.29 14.57,14.57 0 0 0 9.74,-3.53 10.09,10.09 0 0 0 2.2,0.24 10.27,10.27 0 0 0 8.71,-4.9 10.73,10.73 0 0 0 6.5,-9.53 c 0,-0.06 0,-0.12 0,-0.18 0,-0.06 0.02,-0.18 0.02,-0.26 z"
     id="path6473"
     style="isolation:isolate;fill:url(#linear-gradient-2)" />
  <g
     class="cls-33"
     mask="url(#mask-2)"
     id="g6490"
     style="isolation:isolate"
     transform="translate(-12.334183,0.00349796)">
    <path
       class="cls-34"
       d="m 84.52,37.22 c 0,-5.41 -4.57,-9.9 -10.53,-10.71 a 12.09,12.09 0 0 0 -1.21,-0.11 11.14,11.14 0 0 0 -6,-3.51 10.73,10.73 0 0 0 -4.68,-4.56 26.07,26.07 0 0 0 -21.05,-18.28 4.43,4.43 0 0 0 -4.71,6.23 17.29,17.29 0 0 1 1.6,7.29 c 0,0.3 0,0.59 0,0.89 0,0 0,0 0,0.07 A 17.4,17.4 0 0 1 20.57,31 17.71,17.71 0 0 1 17.85,30.78 h -0.2 -0.21 a 4.42,4.42 0 0 0 -4.73,6.15 26.94,26.94 0 0 0 24.38,15.78 25.47,25.47 0 0 0 6,-0.73 10,10 0 0 0 4.74,1.2 10.39,10.39 0 0 0 1.37,-0.09 15.11,15.11 0 0 0 8.15,2.29 14.57,14.57 0 0 0 9.74,-3.53 10.09,10.09 0 0 0 2.2,0.24 10.27,10.27 0 0 0 8.71,-4.9 10.73,10.73 0 0 0 6.5,-9.53 c 0,-0.06 0,-0.12 0,-0.18 0,-0.06 0.02,-0.18 0.02,-0.26 z"
       id="path6488"
       style="fill:url(#linear-gradient-3)" />
  </g>
  <g
     id="moon_cloud-2"
     data-name="moon_cloud"
     style="isolation:isolate"
     transform="translate(-12.334183,0.00349796)">
    <path
       class="cls-27"
       d="m 40.91,4.84 a 22.58,22.58 0 0 1 1.9,9.36 c 0,12 -10.2,21.94 -22.24,21.94 -1,0 -2.43,-0.89 -3.41,-1 l -0.4,-0.06 A 22.41,22.41 0 0 0 37.09,48.29 21.82,21.82 0 0 0 58.75,26.73 C 58.75,15.84 51.34,6.47 40.91,4.84 Z"
       id="path6475" />
    <path
       class="cls-28"
       d="M 40.36,4.43 A 21.8,21.8 0 0 1 20.57,35.37 22.53,22.53 0 0 1 17.16,35.11 21.8,21.8 0 1 0 40.36,4.43 Z"
       id="path6477" />
    <path
       class="cls-29"
       d="m 35.89,29.07 a 40.29,40.29 0 0 1 5,-0.32 A 32.92,32.92 0 0 1 57.61,33 21.83,21.83 0 0 0 40.36,4.43 21.78,21.78 0 0 1 35.89,29.07 Z"
       id="path6479" />
    <path
       class="cls-30"
       d="m 72.06,31.24 a 11.21,11.21 0 0 0 -1.56,0.12 6.63,6.63 0 0 0 -6.07,-3.84 8.67,8.67 0 0 0 -0.89,0.06 5.94,5.94 0 0 0 -11.78,-0.47 5.85,5.85 0 0 0 -1.51,-0.21 6.17,6.17 0 0 0 -6,5.79 5.62,5.62 0 0 0 -2.94,-0.83 6.23,6.23 0 0 0 -6,6.42 6.22,6.22 0 0 0 6,6.41 5.26,5.26 0 0 0 0.89,-0.08 6,6 0 0 0 5.61,4.14 5.6,5.6 0 0 0 2.38,-0.52 9.93,9.93 0 0 0 7.16,2.77 c 3.94,0 7.27,-1.92 8.35,-4.57 a 5.72,5.72 0 0 0 3.59,1.28 6,6 0 0 0 5.56,-4 c 3.06,-0.91 5.24,-3.26 5.24,-6 0,-3.6 -3.6,-6.47 -8.03,-6.47 z"
       id="path6481" />
    <path
       class="cls-31"
       d="m 72.06,30.8 a 9.85,9.85 0 0 0 -1.56,0.13 6.62,6.62 0 0 0 -6.07,-3.85 8.67,8.67 0 0 0 -0.89,0.06 5.94,5.94 0 0 0 -11.78,-0.47 5.85,5.85 0 0 0 -1.51,-0.21 6.17,6.17 0 0 0 -6,5.79 5.62,5.62 0 0 0 -2.94,-0.83 6.23,6.23 0 0 0 -6,6.42 6.22,6.22 0 0 0 6,6.41 5.26,5.26 0 0 0 0.89,-0.08 6,6 0 0 0 5.61,4.14 5.75,5.75 0 0 0 2.38,-0.52 9.93,9.93 0 0 0 7.14,2.72 c 3.94,0 7.27,-1.92 8.35,-4.57 a 5.72,5.72 0 0 0 3.59,1.28 6,6 0 0 0 5.56,-4 c 3.06,-0.9 5.24,-3.26 5.24,-6 0.02,-3.54 -3.58,-6.42 -8.01,-6.42 z"
       id="path6483" />
    <path
       class="cls-32"
       d="m 57.71,36.06 a 85,85 0 0 1 22.14,2.71 5,5 0 0 0 0.24,-1.55 c 0,-3.54 -3.6,-6.42 -8,-6.42 a 9.85,9.85 0 0 0 -1.56,0.13 6.62,6.62 0 0 0 -6.07,-3.85 8.67,8.67 0 0 0 -0.89,0.06 5.94,5.94 0 0 0 -11.78,-0.47 5.85,5.85 0 0 0 -1.51,-0.21 6.17,6.17 0 0 0 -6,5.79 5.62,5.62 0 0 0 -2.94,-0.83 6.23,6.23 0 0 0 -6,6.42 6.37,6.37 0 0 0 0.08,1 84.67,84.67 0 0 1 22.29,-2.78 z"
       id="path6485" />
  </g>
</svg>
