<?xml version="1.0" encoding="UTF-8" standalone="no"?>
<svg
   xmlns:dc="http://purl.org/dc/elements/1.1/"
   xmlns:cc="http://creativecommons.org/ns#"
   xmlns:rdf="http://www.w3.org/1999/02/22-rdf-syntax-ns#"
   xmlns:svg="http://www.w3.org/2000/svg"
   xmlns="http://www.w3.org/2000/svg"
   xmlns:sodipodi="http://sodipodi.sourceforge.net/DTD/sodipodi-0.dtd"
   xmlns:inkscape="http://www.inkscape.org/namespaces/inkscape"
   viewBox="0 0 63.299998 55.605819"
   version="1.1"
   id="svg5504"
   sodipodi:docname="rain.svg"
   inkscape:version="1.0.1 (3bc2e813f5, 2020-09-07)"
   width="63.299999"
   height="55.605816">
  <metadata
     id="metadata5508">
    <rdf:RDF>
      <cc:Work
         rdf:about="">
        <dc:format>image/svg+xml</dc:format>
        <dc:type
           rdf:resource="http://purl.org/dc/dcmitype/StillImage" />
      </cc:Work>
    </rdf:RDF>
  </metadata>
  <sodipodi:namedview
     pagecolor="#ffffff"
     bordercolor="#666666"
     borderopacity="1"
     objecttolerance="10"
     gridtolerance="10"
     guidetolerance="10"
     inkscape:pageopacity="0"
     inkscape:pageshadow="2"
     inkscape:window-width="1366"
     inkscape:window-height="705"
     id="namedview5506"
     showgrid="false"
     inkscape:zoom="3.672986"
     inkscape:cx="48.47789"
     inkscape:cy="15.866095"
     inkscape:window-x="-8"
     inkscape:window-y="-8"
     inkscape:window-maximized="1"
     inkscape:current-layer="svg5504"
     inkscape:document-rotation="0" />
  <defs
     id="defs5420">
    <style
       id="style5355">.cls-1{mask:url(#mask);filter:url(#luminosity-noclip-2);}.cls-2,.cls-34,.cls-4{mix-blend-mode:multiply;}.cls-2{fill:url(#linear-gradient);}.cls-3{isolation:isolate;}.cls-25,.cls-5{fill:#fff;}.cls-5{opacity:0;}.cls-6{fill:#fbfcfc;opacity:0.05;}.cls-7{fill:#f8f8f8;opacity:0.11;}.cls-8{fill:#f4f5f5;opacity:0.16;}.cls-9{fill:#f1f1f2;opacity:0.21;}.cls-10{fill:#edeeee;opacity:0.26;}.cls-11{fill:#eaeaeb;opacity:0.32;}.cls-12{fill:#e6e7e8;opacity:0.37;}.cls-13{fill:#e3e4e4;opacity:0.42;}.cls-14{fill:#dfe0e1;opacity:0.47;}.cls-15{fill:#dcddde;opacity:0.53;}.cls-16{fill:#d8d9db;opacity:0.58;}.cls-17{fill:#d5d6d7;opacity:0.63;}.cls-18{fill:#d1d3d4;opacity:0.68;}.cls-19{fill:#cecfd1;opacity:0.74;}.cls-20{fill:#cacccd;opacity:0.79;}.cls-21{fill:#c7c8ca;opacity:0.84;}.cls-22{fill:#c3c5c7;opacity:0.89;}.cls-23{fill:#c0c1c3;opacity:0.95;}.cls-24{fill:#bcbec0;}.cls-26{fill:url(#linear-gradient-2);}.cls-27{fill:#1a485e;}.cls-28{fill:#276c8d;}.cls-29,.cls-32{fill:#7f8c8d;mix-blend-mode:screen;}.cls-29{opacity:0.15;}.cls-30{fill:#007dc4;}.cls-31{fill:#00a2ff;}.cls-32{opacity:0.2;}.cls-33{mask:url(#mask-2);}.cls-34{fill:url(#linear-gradient-3);}.cls-35{filter:url(#luminosity-noclip);}</style>
    <filter
       id="luminosity-noclip"
       x="12.33"
       y="-8216.4199"
       width="62.880001"
       height="32766"
       filterUnits="userSpaceOnUse"
       color-interpolation-filters="sRGB">
      <feFlood
         flood-color="#fff"
         result="bg"
         id="feFlood5357" />
      <feBlend
         in="SourceGraphic"
         in2="bg"
         id="feBlend5359"
         mode="normal" />
    </filter>
    <mask
       id="mask"
       x="12.33"
       y="-8216.42"
       width="62.88"
       height="32766"
       maskUnits="userSpaceOnUse">
      <g
         class="cls-35"
         id="g5362" />
    </mask>
    <linearGradient
       id="linear-gradient"
       x1="20.17"
       y1="50.029999"
       x2="66.400002"
       y2="3.8"
       gradientUnits="userSpaceOnUse">
      <stop
         offset="0.39"
         id="stop5365" />
      <stop
         offset="0.45"
         stop-color="#030303"
         id="stop5367" />
      <stop
         offset="0.5"
         stop-color="#0c0c0c"
         id="stop5369" />
      <stop
         offset="0.53"
         stop-color="#1c1c1c"
         id="stop5371" />
      <stop
         offset="0.57"
         stop-color="#323232"
         id="stop5373" />
      <stop
         offset="0.6"
         stop-color="#4e4e4e"
         id="stop5375" />
      <stop
         offset="0.63"
         stop-color="#717171"
         id="stop5377" />
      <stop
         offset="0.66"
         stop-color="#9b9b9b"
         id="stop5379" />
      <stop
         offset="0.69"
         stop-color="#c9c9c9"
         id="stop5381" />
      <stop
         offset="0.72"
         stop-color="#fff"
         id="stop5383" />
      <stop
         offset="0.76"
         stop-color="#fff"
         id="stop5385" />
      <stop
         offset="0.99"
         stop-color="#fff"
         id="stop5387" />
    </linearGradient>
    <linearGradient
       id="linear-gradient-2"
       x1="21.469999"
       y1="48.73"
       x2="58.799999"
       y2="11.4"
       gradientUnits="userSpaceOnUse">
      <stop
         offset="0"
         stop-color="#e6e6e6"
         id="stop5390" />
      <stop
         offset="1"
         stop-color="#fafafa"
         id="stop5392" />
    </linearGradient>
    <filter
       id="luminosity-noclip-2"
       x="12.33"
       y="0"
       width="62.880001"
       height="55.189999"
       filterUnits="userSpaceOnUse"
       color-interpolation-filters="sRGB">
      <feFlood
         flood-color="#fff"
         result="bg"
         id="feFlood5395" />
      <feBlend
         in="SourceGraphic"
         in2="bg"
         id="feBlend5397"
         mode="normal" />
    </filter>
    <mask
       id="mask-2"
       x="12.33"
       y="0"
       width="62.88"
       height="55.19"
       maskUnits="userSpaceOnUse">
      <g
         class="cls-1"
         mask="url(#mask)"
         id="g5402">
        <path
           class="cls-2"
           d="m 75.22,22 c 0,-6.45 -6,-11.53 -13.78,-11.67 A 12.66,12.66 0 0 0 54,6.25 11.7,11.7 0 0 0 33.78,5.42 L 33.07,5.5 A 11.62,11.62 0 0 0 24.76,11 H 24 A 11.69,11.69 0 0 0 12.33,22.67 c 0,0.09 0,0.18 0,0.27 0,0.09 0,0.15 0,0.23 a 11.7,11.7 0 0 0 10.18,11.58 12,12 0 0 0 2.88,2.72 17.37,17.37 0 0 0 -1.9,2.17 l -0.11,0.16 -0.16,0.23 -0.22,0.34 -0.08,0.14 a 1.19,1.19 0 0 0 -0.09,0.15 v 0.1 A 7.25,7.25 0 0 0 22.25,42 v 0.11 c 0,0 0,0.07 0,0.11 a 8.37,8.37 0 0 0 0.28,5.8 7.38,7.38 0 0 0 4.47,4.14 7.26,7.26 0 0 0 2.12,0.32 7.64,7.64 0 0 0 5.43,-2.36 2.6,2.6 0 0 1 0.1,0.25 7.93,7.93 0 0 0 4.9,4.47 7.71,7.71 0 0 0 2.29,0.35 8.64,8.64 0 0 0 7.6,-5 7.25,7.25 0 0 0 3.09,1.95 7.33,7.33 0 0 0 2.13,0.32 8.05,8.05 0 0 0 7.49,-5.79 c 0,0 0,-0.07 0,-0.11 0,-0.04 0,-0.08 0,-0.12 a 6.76,6.76 0 0 0 0.26,-1.31 0.3,0.3 0 0 0 0,-0.1 1.09,1.09 0 0 0 0,-0.18 0.86,0.86 0 0 0 0,-0.16 c 0,-0.13 0,-0.26 0,-0.39 V 44 c 0,-0.06 0,-0.12 0,-0.18 a 22.51,22.51 0 0 0 -1.22,-6.19 11.57,11.57 0 0 0 6.25,-4.78 c 4.65,-2 7.66,-6 7.66,-10.4 a 1.49,1.49 0 0 0 0,-0.21 2.83,2.83 0 0 0 0.12,-0.24 z"
           id="path5400" />
      </g>
    </mask>
    <linearGradient
       id="linear-gradient-3"
       x1="20.17"
       y1="50.029999"
       x2="66.400002"
       y2="3.8"
       gradientUnits="userSpaceOnUse">
      <stop
         offset="0.39"
         stop-color="#fff"
         id="stop5405" />
      <stop
         offset="0.51"
         stop-color="#fcfcfc"
         id="stop5407" />
      <stop
         offset="0.59"
         stop-color="#f3f3f3"
         id="stop5409" />
      <stop
         offset="0.66"
         stop-color="#e4e4e4"
         id="stop5411" />
      <stop
         offset="0.72"
         stop-color="#cfcfcf"
         id="stop5413" />
      <stop
         offset="0.79"
         stop-color="#d5d5d5"
         id="stop5415" />
      <stop
         offset="0.99"
         stop-color="#d7d7d7"
         id="stop5417" />
    </linearGradient>
  </defs>
  <title
     id="title5422">rain</title>
  <path
     class="cls-25"
     d="m 62.88,22.38579 c 0,-6.45 -6,-11.52 -13.77,-11.67 a 12.64,12.64 0 0 0 -7.44,-4.0000005 11.69,11.69 0 0 0 -20.22,-0.84 l -0.71,0.08 A 11.67,11.67 0 0 0 12.42,11.47579 H 11.67 A 11.69,11.69 0 0 0 0,23.09579 c 0,0.08 0,0.18 0,0.27 0,0.09 0,0.15 0,0.22 a 11.68,11.68 0 0 0 10.18,11.58 11.63,11.63 0 0 0 2.91,2.72 16.59,16.59 0 0 0 -1.9,2.17 l -0.12,0.16 -0.16,0.24 a 3.87,3.87 0 0 0 -0.21,0.34 l -0.08,0.13 c 0,0.06 -0.07,0.11 -0.1,0.16 a 0.36,0.36 0 0 0 0,0.09 6.52,6.52 0 0 0 -0.53,1.23 v 0.12 c 0,0 0,0.07 0,0.11 a 8.37,8.37 0 0 0 0.28,5.8 7.36,7.36 0 0 0 4.55,4.14 7.21,7.21 0 0 0 2.12,0.32 7.64,7.64 0 0 0 5.43,-2.36 1.86,1.86 0 0 0 0.1,0.25 8,8 0 0 0 4.9,4.48 7.68,7.68 0 0 0 2.28,0.34 8.64,8.64 0 0 0 7.6,-5 7.11,7.11 0 0 0 5.22,2.27 8.06,8.06 0 0 0 7.49,-5.78 v -0.11 c 0,0 0,-0.08 0,-0.12 a 6.76,6.76 0 0 0 0.26,-1.31 c 0,0 0,-0.07 0,-0.1 0,-0.03 0,-0.12 0,-0.18 a 1,1 0 0 1 0,-0.17 c 0,-0.13 0,-0.26 0,-0.39 v -0.48 a 22.38,22.38 0 0 0 -1.23,-6.18 11.6,11.6 0 0 0 6.25,-4.79 c 4.66,-2 7.66,-5.95 7.66,-10.4 0,-0.07 0,-0.14 0,-0.2 0,-0.06 -0.02,-0.18 -0.02,-0.28 z"
     id="path5466"
     style="isolation:isolate" />
  <g
     class="cls-33"
     mask="url(#mask-2)"
     id="g5497"
     style="isolation:isolate"
     transform="translate(-11.91,-0.00421047)">
    <path
       class="cls-34"
       d="m 75.22,22 c 0,-6.45 -6,-11.53 -13.78,-11.67 A 12.66,12.66 0 0 0 54,6.25 11.7,11.7 0 0 0 33.78,5.42 L 33.07,5.5 A 11.62,11.62 0 0 0 24.76,11 H 24 A 11.69,11.69 0 0 0 12.33,22.67 c 0,0.09 0,0.18 0,0.27 0,0.09 0,0.15 0,0.23 a 11.7,11.7 0 0 0 10.18,11.58 12,12 0 0 0 2.88,2.72 17.37,17.37 0 0 0 -1.9,2.17 l -0.11,0.16 -0.16,0.23 -0.22,0.34 -0.08,0.14 a 1.19,1.19 0 0 0 -0.09,0.15 v 0.1 A 7.25,7.25 0 0 0 22.25,42 v 0.11 c 0,0 0,0.07 0,0.11 a 8.37,8.37 0 0 0 0.28,5.8 7.38,7.38 0 0 0 4.47,4.14 7.26,7.26 0 0 0 2.12,0.32 7.64,7.64 0 0 0 5.43,-2.36 2.6,2.6 0 0 1 0.1,0.25 7.93,7.93 0 0 0 4.9,4.47 7.71,7.71 0 0 0 2.29,0.35 8.64,8.64 0 0 0 7.6,-5 7.25,7.25 0 0 0 3.09,1.95 7.33,7.33 0 0 0 2.13,0.32 8.05,8.05 0 0 0 7.49,-5.79 c 0,0 0,-0.07 0,-0.11 0,-0.04 0,-0.08 0,-0.12 a 6.76,6.76 0 0 0 0.26,-1.31 0.3,0.3 0 0 0 0,-0.1 1.09,1.09 0 0 0 0,-0.18 0.86,0.86 0 0 0 0,-0.16 c 0,-0.13 0,-0.26 0,-0.39 V 44 c 0,-0.06 0,-0.12 0,-0.18 a 22.51,22.51 0 0 0 -1.22,-6.19 11.57,11.57 0 0 0 6.25,-4.78 c 4.65,-2 7.66,-6 7.66,-10.4 a 1.49,1.49 0 0 0 0,-0.21 2.83,2.83 0 0 0 0.12,-0.24 z"
       id="path5495"
       style="fill:url(#linear-gradient-3)" />
  </g>
  <g
     id="rain-2"
     data-name="rain"
     style="isolation:isolate"
     transform="translate(-11.91,-0.00421047)">
    <path
       class="cls-27"
       d="M 61.1,15.22 A 13,13 0 0 0 59.21,15.35 8,8 0 0 0 51.89,11 9.28,9.28 0 0 0 50.82,11.08 7.24,7.24 0 0 0 36.6,10.54 7.41,7.41 0 0 0 34.77,10.3 7.25,7.25 0 0 0 27.55,16.84 7.25,7.25 0 1 0 24,30.42 a 7.6,7.6 0 0 0 1.07,-0.09 7.26,7.26 0 0 0 9.65,4.09 12.43,12.43 0 0 0 8.61,3.08 c 4.76,0 8.78,-2.18 10.08,-5.17 a 7.24,7.24 0 0 0 11,-3.06 c 3.69,-1 6.32,-3.69 6.32,-6.8 0.06,-4.01 -4.28,-7.25 -9.63,-7.25 z"
       id="path5470" />
    <path
       class="cls-28"
       d="M 61.1,14.72 A 13,13 0 0 0 59.21,14.86 8,8 0 0 0 51.89,10.51 9.3,9.3 0 0 0 50.82,10.58 7.24,7.24 0 0 0 36.6,10.05 7,7 0 0 0 34.77,9.81 7.25,7.25 0 0 0 27.55,16.35 7.16,7.16 0 0 0 24,15.42 a 7.25,7.25 0 0 0 0,14.5 6.35,6.35 0 0 0 1.07,-0.09 7.26,7.26 0 0 0 9.65,4.09 12.43,12.43 0 0 0 8.62,3.08 c 4.76,0 8.78,-2.18 10.08,-5.17 a 7.24,7.24 0 0 0 11,-3.06 c 3.69,-1 6.32,-3.68 6.32,-6.8 C 70.79,18 66.45,14.72 61.1,14.72 Z"
       id="path5472" />
    <path
       class="cls-29"
       d="M 43.77,20.66 A 109.24,109.24 0 0 1 70.5,23.73 5.46,5.46 0 0 0 70.79,22 c 0,-4 -4.34,-7.25 -9.69,-7.25 A 13,13 0 0 0 59.21,14.89 8,8 0 0 0 51.89,10.54 9.3,9.3 0 0 0 50.82,10.61 7.24,7.24 0 0 0 36.6,10.08 7,7 0 0 0 34.77,9.84 7.25,7.25 0 0 0 27.55,16.38 7.16,7.16 0 0 0 24,15.42 a 7.25,7.25 0 0 0 -7.25,7.25 8,8 0 0 0 0.09,1.11 109,109 0 0 1 26.93,-3.12 z"
       id="path5474" />
    <path
       class="cls-30"
       d="m 32.39,45.38 a 3.41,3.41 0 0 1 -4.07,2.55 3.42,3.42 0 0 1 -1.91,-4.41 c 0.6,-1.92 4.84,-5 4.84,-5 0,0 1.75,4.94 1.14,6.86 z"
       id="path5476" />
    <path
       class="cls-31"
       d="m 32.46,45.15 a 3.41,3.41 0 0 1 -4.07,2.55 3.41,3.41 0 0 1 -1.91,-4.4 c 0.6,-1.92 4.84,-5 4.84,-5 0,0 1.74,4.93 1.14,6.85 z"
       id="path5478" />
    <path
       class="cls-32"
       d="m 29.72,43.44 a 16.68,16.68 0 0 1 2.84,1.17 c 0.22,-2.17 -1.24,-6.33 -1.24,-6.33 0,0 -3.56,2.6 -4.61,4.52 a 16.93,16.93 0 0 1 3.01,0.64 z"
       id="path5480" />
    <path
       class="cls-30"
       d="m 57.93,45.38 a 3.17,3.17 0 1 1 -6,-1.86 c 0.6,-1.92 4.84,-5 4.84,-5 0,0 1.75,4.94 1.16,6.86 z"
       id="path5482" />
    <path
       class="cls-31"
       d="M 58,45.15 A 3.17,3.17 0 1 1 52,43.3 c 0.6,-1.92 4.84,-5 4.84,-5 0,0 1.75,4.93 1.16,6.85 z"
       id="path5484" />
    <path
       class="cls-32"
       d="m 55.25,43.44 a 17.14,17.14 0 0 1 2.85,1.17 c 0.21,-2.17 -1.25,-6.33 -1.25,-6.33 0,0 -3.56,2.6 -4.61,4.52 a 16.93,16.93 0 0 1 3.01,0.64 z"
       id="path5486" />
    <path
       class="cls-30"
       d="m 45.75,47.56 c -0.71,2.3 -2.9,3.67 -4.87,3 -1.97,-0.67 -3,-3 -2.29,-5.27 0.71,-2.27 5.79,-6 5.79,-6 0,0 2.08,5.97 1.37,8.27 z"
       id="path5488" />
    <path
       class="cls-31"
       d="m 45.84,47.29 c -0.72,2.3 -2.9,3.67 -4.88,3.05 -1.98,-0.62 -3,-3 -2.29,-5.27 0.71,-2.27 5.79,-6 5.79,-6 0,0 2.09,5.93 1.38,8.22 z"
       id="path5490" />
    <path
       class="cls-32"
       d="m 42.54,45.24 a 21.28,21.28 0 0 1 3.46,1.4 c 0.26,-2.6 -1.49,-7.58 -1.49,-7.58 0,0 -4.26,3.11 -5.52,5.41 a 20,20 0 0 1 3.55,0.77 z"
       id="path5492" />
  </g>
</svg>
