<?xml version="1.0" encoding="UTF-8" standalone="no"?>
<svg
   xmlns:dc="http://purl.org/dc/elements/1.1/"
   xmlns:cc="http://creativecommons.org/ns#"
   xmlns:rdf="http://www.w3.org/1999/02/22-rdf-syntax-ns#"
   xmlns:svg="http://www.w3.org/2000/svg"
   xmlns="http://www.w3.org/2000/svg"
   xmlns:sodipodi="http://sodipodi.sourceforge.net/DTD/sodipodi-0.dtd"
   xmlns:inkscape="http://www.inkscape.org/namespaces/inkscape"
   viewBox="0 0 56.967868 57.001082"
   version="1.1"
   id="svg177"
   sodipodi:docname="sun.svg"
   inkscape:version="1.0.1 (3bc2e813f5, 2020-09-07)"
   width="56.967865"
   height="57.00108">
  <metadata
     id="metadata181">
    <rdf:RDF>
      <cc:Work
         rdf:about="">
        <dc:format>image/svg+xml</dc:format>
        <dc:type
           rdf:resource="http://purl.org/dc/dcmitype/StillImage" />
      </cc:Work>
    </rdf:RDF>
  </metadata>
  <sodipodi:namedview
     pagecolor="#ffffff"
     bordercolor="#666666"
     borderopacity="1"
     objecttolerance="10"
     gridtolerance="10"
     guidetolerance="10"
     inkscape:pageopacity="0"
     inkscape:pageshadow="2"
     inkscape:window-width="1366"
     inkscape:window-height="705"
     id="namedview179"
     showgrid="false"
     inkscape:zoom="3.7644203"
     inkscape:cx="33.858903"
     inkscape:cy="30.17324"
     inkscape:window-x="-8"
     inkscape:window-y="-8"
     inkscape:window-maximized="1"
     inkscape:current-layer="svg177"
     inkscape:document-rotation="0" />
  <defs
     id="defs61">
    <style
       id="style2">.cls-1{mask:url(#mask);filter:url(#luminosity-noclip-2);}.cls-2,.cls-4,.cls-53{mix-blend-mode:multiply;}.cls-2{fill:url(#linear-gradient);}.cls-3{isolation:isolate;}.cls-47,.cls-5{fill:#fff;}.cls-5{opacity:0;}.cls-6{fill:#fdfdfd;opacity:0.02;}.cls-7{fill:#fcfcfc;opacity:0.05;}.cls-8{fill:#fafafa;opacity:0.07;}.cls-9{fill:#f8f9f9;opacity:0.1;}.cls-10{fill:#f7f7f7;opacity:0.12;}.cls-11{fill:#f5f5f6;opacity:0.15;}.cls-12{fill:#f4f4f4;opacity:0.17;}.cls-13{fill:#f2f2f3;opacity:0.2;}.cls-14{fill:#f0f1f1;opacity:0.22;}.cls-15{fill:#efeff0;opacity:0.24;}.cls-16{fill:#edeeee;opacity:0.27;}.cls-17{fill:#ebeced;opacity:0.29;}.cls-18{fill:#eaeaeb;opacity:0.32;}.cls-19{fill:#e8e9e9;opacity:0.34;}.cls-20{fill:#e6e7e8;opacity:0.37;}.cls-21{fill:#e5e6e6;opacity:0.39;}.cls-22{fill:#e3e4e5;opacity:0.41;}.cls-23{fill:#e2e2e3;opacity:0.44;}.cls-24{fill:#e0e1e2;opacity:0.46;}.cls-25{fill:#dedfe0;opacity:0.49;}.cls-26{fill:#dddedf;opacity:0.51;}.cls-27{fill:#dbdcdd;opacity:0.54;}.cls-28{fill:#d9dbdc;opacity:0.56;}.cls-29{fill:#d8d9da;opacity:0.59;}.cls-30{fill:#d6d7d9;opacity:0.61;}.cls-31{fill:#d5d6d7;opacity:0.63;}.cls-32{fill:#d3d4d6;opacity:0.66;}.cls-33{fill:#d1d3d4;opacity:0.68;}.cls-34{fill:#d0d1d2;opacity:0.71;}.cls-35{fill:#cecfd1;opacity:0.73;}.cls-36{fill:#cccecf;opacity:0.76;}.cls-37{fill:#cbccce;opacity:0.78;}.cls-38{fill:#c9cbcc;opacity:0.8;}.cls-39{fill:#c7c9cb;opacity:0.83;}.cls-40{fill:#c6c8c9;opacity:0.85;}.cls-41{fill:#c4c6c8;opacity:0.88;}.cls-42{fill:#c3c4c6;opacity:0.9;}.cls-43{fill:#c1c3c5;opacity:0.93;}.cls-44{fill:#bfc1c3;opacity:0.95;}.cls-45{fill:#bec0c2;opacity:0.98;}.cls-46{fill:#bcbec0;}.cls-48{fill:url(#linear-gradient-2);}.cls-49{fill:#e69100;}.cls-50,.cls-51{fill:#fb0;}.cls-51{opacity:0.2;mix-blend-mode:screen;}.cls-52{mask:url(#mask-2);}.cls-53{fill:url(#linear-gradient-3);}.cls-54{filter:url(#luminosity-noclip);}</style>
    <filter
       id="luminosity-noclip"
       x="9.04"
       y="-8375.21"
       width="56.900002"
       height="32766"
       filterUnits="userSpaceOnUse"
       color-interpolation-filters="sRGB">
      <feFlood
         flood-color="#fff"
         result="bg"
         id="feFlood4" />
      <feBlend
         in="SourceGraphic"
         in2="bg"
         id="feBlend6"
         mode="normal" />
    </filter>
    <mask
       id="mask"
       x="9.04"
       y="-8375.21"
       width="56.9"
       height="32766"
       maskUnits="userSpaceOnUse">
      <g
         class="cls-54"
         id="g9" />
    </mask>
    <linearGradient
       id="linear-gradient"
       x1="13.4"
       y1="52.509998"
       x2="55.66"
       y2="10.25"
       gradientUnits="userSpaceOnUse">
      <stop
         offset="0.39"
         stop-color="#b3b3b3"
         id="stop12" />
      <stop
         offset="0.49"
         stop-color="#b6b6b6"
         id="stop14" />
      <stop
         offset="0.56"
         stop-color="#bfbfbf"
         id="stop16" />
      <stop
         offset="0.62"
         stop-color="#cfcfcf"
         id="stop18" />
      <stop
         offset="0.67"
         stop-color="#e4e4e4"
         id="stop20" />
      <stop
         offset="0.72"
         stop-color="#fff"
         id="stop22" />
      <stop
         offset="0.76"
         stop-color="#fff"
         id="stop24" />
      <stop
         offset="0.99"
         stop-color="#fff"
         id="stop26" />
    </linearGradient>
    <linearGradient
       id="linear-gradient-2"
       x1="14.12"
       y1="51.790001"
       x2="56.779999"
       y2="9.1300001"
       gradientUnits="userSpaceOnUse"
       gradientTransform="translate(-8.9891831,0.00107935)">
      <stop
         offset="0"
         stop-color="#e6e6e6"
         id="stop29" />
      <stop
         offset="1"
         stop-color="#fafafa"
         id="stop31" />
    </linearGradient>
    <filter
       id="luminosity-noclip-2"
       x="9.04"
       y="0"
       width="56.900002"
       height="56.950001"
       filterUnits="userSpaceOnUse"
       color-interpolation-filters="sRGB">
      <feFlood
         flood-color="#fff"
         result="bg"
         id="feFlood34" />
      <feBlend
         in="SourceGraphic"
         in2="bg"
         id="feBlend36"
         mode="normal" />
    </filter>
    <mask
       id="mask-2"
       x="9.04"
       y="0"
       width="56.9"
       height="56.95"
       maskUnits="userSpaceOnUse">
      <g
         class="cls-1"
         mask="url(#mask)"
         id="g41">
        <path
           class="cls-2"
           d="m 64.29,25 -0.18,-0.15 v 0 l -6.21,-5 0.86,-7.92 A 4.43,4.43 0 0 0 53.85,7 l -7.92,0.86 -5,-6.21 a 4.43,4.43 0 0 0 -6.9,0 L 29,7.86 21.12,7 a 4.43,4.43 0 0 0 -4.88,4.88 l 0.86,7.92 -6,4.79 -0.24,0.19 -0.22,0.17 a 4.42,4.42 0 0 0 0,6.89 l 6.43,5.16 -0.83,7.61 c 0,0.06 0,0.12 0,0.18 v 0.17 a 4.43,4.43 0 0 0 1.28,3.6 4.38,4.38 0 0 0 3.6,1.27 L 28.9,49 34.05,55.33 A 4.43,4.43 0 0 0 37.48,57 v 0 a 4.41,4.41 0 0 0 3.43,-1.64 l 5.15,-6.36 7.78,0.86 a 4.44,4.44 0 0 0 4.91,-4.57 c 0,-0.22 0,-0.44 0,-0.66 L 57.9,37 64.3,31.86 a 4.42,4.42 0 0 0 0,-6.9 z"
           id="path39" />
      </g>
    </mask>
    <linearGradient
       id="linear-gradient-3"
       x1="13.4"
       y1="52.509998"
       x2="55.66"
       y2="10.25"
       gradientUnits="userSpaceOnUse">
      <stop
         offset="0.39"
         stop-color="#fff"
         id="stop44" />
      <stop
         offset="0.5"
         stop-color="#fcfcfc"
         id="stop46" />
      <stop
         offset="0.58"
         stop-color="#f3f3f3"
         id="stop48" />
      <stop
         offset="0.65"
         stop-color="#e3e3e3"
         id="stop50" />
      <stop
         offset="0.71"
         stop-color="#cecece"
         id="stop52" />
      <stop
         offset="0.72"
         stop-color="#c9c9c9"
         id="stop54" />
      <stop
         offset="0.76"
         stop-color="#c9c9c9"
         id="stop56" />
      <stop
         offset="0.99"
         stop-color="#c9c9c9"
         id="stop58" />
    </linearGradient>
  </defs>
  <title
     id="title63">sun</title>
  <path
     class="cls-48"
     d="m 55.300817,25.001079 -0.18,-0.15 v 0 l -6.21,-5 0.86,-7.92 a 4.43,4.43 0 0 0 -4.91,-4.9299997 l -7.92,0.86 -5,-6.21 a 4.43,4.43 0 0 0 -6.9,0 l -5.03,6.21 -7.88,-0.86 A 4.43,4.43 0 0 0 7.2508169,11.881079 l 0.86,7.92 -6,4.79 -0.24,0.19 -0.22,0.17 a 4.42,4.42 0 0 0 0,6.89 l 6.43,5.16 -0.83,7.61 c 0,0.06 0,0.12 0,0.18 v 0.17 a 4.43,4.43 0 0 0 1.28,3.6 4.38,4.38 0 0 0 3.6000001,1.27 l 7.78,-0.83 5.15,6.33 a 4.43,4.43 0 0 0 3.43,1.67 v 0 a 4.41,4.41 0 0 0 3.43,-1.64 l 5.15,-6.36 7.78,0.86 a 4.44,4.44 0 0 0 4.91,-4.57 c 0,-0.22 0,-0.44 0,-0.66 l -0.85,-7.63 6.4,-5.14 a 4.42,4.42 0 0 0 0,-6.9 z"
     id="path153"
     style="isolation:isolate;fill:url(#linear-gradient-2)" />
  <g
     class="cls-52"
     mask="url(#mask-2)"
     id="g170"
     style="isolation:isolate"
     transform="translate(-8.9891831,0.00107935)">
    <path
       class="cls-53"
       d="m 64.29,25 -0.18,-0.15 v 0 l -6.21,-5 0.86,-7.92 A 4.43,4.43 0 0 0 53.85,7 l -7.92,0.86 -5,-6.21 a 4.43,4.43 0 0 0 -6.9,0 L 29,7.86 21.12,7 a 4.43,4.43 0 0 0 -4.88,4.88 l 0.86,7.92 -6,4.79 -0.24,0.19 -0.22,0.17 a 4.42,4.42 0 0 0 0,6.89 l 6.43,5.16 -0.83,7.61 c 0,0.06 0,0.12 0,0.18 v 0.17 a 4.43,4.43 0 0 0 1.28,3.6 4.38,4.38 0 0 0 3.6,1.27 L 28.9,49 34.05,55.33 A 4.43,4.43 0 0 0 37.48,57 v 0 a 4.41,4.41 0 0 0 3.43,-1.64 l 5.15,-6.36 7.78,0.86 a 4.44,4.44 0 0 0 4.91,-4.57 c 0,-0.22 0,-0.44 0,-0.66 L 57.9,37 64.3,31.86 a 4.42,4.42 0 0 0 0,-6.9 z"
       id="path168"
       style="fill:url(#linear-gradient-3)" />
  </g>
  <g
     id="sun-2"
     data-name="sun"
     style="isolation:isolate"
     transform="translate(-8.9891831,0.00107935)">
    <path
       class="cls-49"
       d="M 37.48,14.23 A 14.36,14.36 0 1 0 51.84,28.59 14.36,14.36 0 0 0 37.48,14.23 Z"
       id="path155" />
    <path
       class="cls-49"
       d="m 53.2,35.11 8.32,-6.69 -0.21,-0.17 -8.19,-6.44 1,-10.23 -10.12,1.06 -6.52,-7.87 -6.43,7.88 -10.28,-1.12 1.07,10.28 -8.16,6.42 -0.21,0.17 8.29,6.7 -1.11,10 v 0.35 l 10.2,-1.1 6.67,8.19 6.66,-8.21 10.19,1.13 z M 44,43.94 A 21.73,21.73 0 0 1 37.48,45.18 21.38,21.38 0 0 1 31,43.89 20,20 0 0 1 25.73,40.32 20.9,20.9 0 0 1 21.92,35 20.87,20.87 0 0 1 21.92,22.11 21,21 0 0 1 31,13 a 21.07,21.07 0 0 1 12.89,0 21,21 0 0 1 5.28,3.85 21.19,21.19 0 0 1 3.85,5.28 21.07,21.07 0 0 1 0,12.89 21.19,21.19 0 0 1 -3.85,5.28 19.92,19.92 0 0 1 -5.17,3.64 z"
       id="path157" />
    <path
       class="cls-50"
       d="M 51.84,28.25 A 14.36,14.36 0 1 1 37.48,13.89 14.35,14.35 0 0 1 51.84,28.25 Z"
       id="path159" />
    <path
       class="cls-50"
       d="M 53.2,34.76 61.31,28.25 53.2,21.74 54.33,11.4 44,12.53 37.48,4.43 31,12.53 20.64,11.4 l 1.12,10.33 -8.1,6.52 8.1,6.51 L 20.64,45.09 31,44 37.51,52.11 44,44 54.33,45.12 Z m -9.27,9.06 a 21.07,21.07 0 0 1 -12.89,0 21,21 0 0 1 -9.12,-9.13 20.87,20.87 0 0 1 0,-12.89 20.93,20.93 0 0 1 9.08,-9.12 20.87,20.87 0 0 1 12.89,0 20.93,20.93 0 0 1 9.12,9.12 20.87,20.87 0 0 1 0,12.89 20.73,20.73 0 0 1 -3.8,5.31 21,21 0 0 1 -5.28,3.82 z"
       id="path161" />
    <path
       class="cls-51"
       d="M 37.48,28.24 A 130.07,130.07 0 0 1 51.82,29 c 0,-0.25 0,-0.51 0,-0.77 a 14.36,14.36 0 1 0 -28.71,0 c 0,0.26 0,0.52 0,0.77 a 130,130 0 0 1 14.37,-0.76 z"
       id="path163" />
    <path
       class="cls-51"
       d="m 16,30.08 c 1.6,-0.29 3.27,-0.56 5,-0.79 0,-0.34 0,-0.69 0,-1 a 20.84,20.84 0 0 1 1,-6.45 20.93,20.93 0 0 1 9,-9.16 20.87,20.87 0 0 1 12.89,0 20.93,20.93 0 0 1 9.12,9.12 20.79,20.79 0 0 1 1,6.45 c 0,0.35 0,0.7 0,1 1.72,0.23 3.39,0.5 5,0.79 L 61.3,28.21 53.2,21.74 54.33,11.4 44,12.53 37.48,4.43 31,12.53 20.64,11.4 l 1.12,10.33 -8.1,6.52 z"
       id="path165" />
  </g>
</svg>
