<?xml version="1.0" encoding="UTF-8" standalone="no"?>
<svg
   xmlns:dc="http://purl.org/dc/elements/1.1/"
   xmlns:cc="http://creativecommons.org/ns#"
   xmlns:rdf="http://www.w3.org/1999/02/22-rdf-syntax-ns#"
   xmlns:svg="http://www.w3.org/2000/svg"
   xmlns="http://www.w3.org/2000/svg"
   xmlns:sodipodi="http://sodipodi.sourceforge.net/DTD/sodipodi-0.dtd"
   xmlns:inkscape="http://www.inkscape.org/namespaces/inkscape"
   viewBox="0 0 75.204882 58.742183"
   version="1.1"
   id="svg9676"
   sodipodi:docname="sun_cloud.svg"
   inkscape:version="1.0.1 (3bc2e813f5, 2020-09-07)"
   width="75.20488"
   height="58.74218">
  <metadata
     id="metadata9680">
    <rdf:RDF>
      <cc:Work
         rdf:about="">
        <dc:format>image/svg+xml</dc:format>
        <dc:type
           rdf:resource="http://purl.org/dc/dcmitype/StillImage" />
      </cc:Work>
    </rdf:RDF>
  </metadata>
  <sodipodi:namedview
     pagecolor="#ffffff"
     bordercolor="#666666"
     borderopacity="1"
     objecttolerance="10"
     gridtolerance="10"
     guidetolerance="10"
     inkscape:pageopacity="0"
     inkscape:pageshadow="2"
     inkscape:window-width="1366"
     inkscape:window-height="705"
     id="namedview9678"
     showgrid="false"
     inkscape:zoom="4.9383973"
     inkscape:cx="49.962789"
     inkscape:cy="35.051588"
     inkscape:window-x="-8"
     inkscape:window-y="-8"
     inkscape:window-maximized="1"
     inkscape:current-layer="svg9676"
     inkscape:document-rotation="0" />
  <defs
     id="defs9598">
    <style
       id="style9539">.cls-1{mask:url(#mask);filter:url(#luminosity-noclip-2);}.cls-2,.cls-34,.cls-4{mix-blend-mode:multiply;}.cls-2{fill:url(#linear-gradient);}.cls-3{isolation:isolate;}.cls-25,.cls-5{fill:#fff;}.cls-5{opacity:0;}.cls-6{fill:#fbfcfc;opacity:0.05;}.cls-7{fill:#f8f8f8;opacity:0.11;}.cls-8{fill:#f4f5f5;opacity:0.16;}.cls-9{fill:#f1f1f2;opacity:0.21;}.cls-10{fill:#edeeee;opacity:0.26;}.cls-11{fill:#eaeaeb;opacity:0.32;}.cls-12{fill:#e6e7e8;opacity:0.37;}.cls-13{fill:#e3e4e4;opacity:0.42;}.cls-14{fill:#dfe0e1;opacity:0.47;}.cls-15{fill:#dcddde;opacity:0.53;}.cls-16{fill:#d8d9db;opacity:0.58;}.cls-17{fill:#d5d6d7;opacity:0.63;}.cls-18{fill:#d1d3d4;opacity:0.68;}.cls-19{fill:#cecfd1;opacity:0.74;}.cls-20{fill:#cacccd;opacity:0.79;}.cls-21{fill:#c7c8ca;opacity:0.84;}.cls-22{fill:#c3c5c7;opacity:0.89;}.cls-23{fill:#c0c1c3;opacity:0.95;}.cls-24{fill:#bcbec0;}.cls-26{fill:url(#linear-gradient-2);}.cls-27{fill:#e69100;}.cls-28,.cls-29{fill:#fb0;}.cls-29,.cls-32{opacity:0.2;mix-blend-mode:screen;}.cls-30{fill:#a3bad4;}.cls-31,.cls-32{fill:#b8d9ff;}.cls-33{mask:url(#mask-2);}.cls-34{fill:url(#linear-gradient-3);}.cls-35{filter:url(#luminosity-noclip);}</style>
    <filter
       id="luminosity-noclip"
       x="12.33"
       y="-8375.6504"
       width="75.220001"
       height="32766"
       filterUnits="userSpaceOnUse"
       color-interpolation-filters="sRGB">
      <feFlood
         flood-color="#fff"
         result="bg"
         id="feFlood9541" />
      <feBlend
         in="SourceGraphic"
         in2="bg"
         id="feBlend9543"
         mode="normal" />
    </filter>
    <mask
       id="mask"
       x="12.33"
       y="-8375.65"
       width="75.22"
       height="32766"
       maskUnits="userSpaceOnUse">
      <g
         class="cls-35"
         id="g9546" />
    </mask>
    <linearGradient
       id="linear-gradient"
       x1="25.34"
       y1="55.439999"
       x2="66.68"
       y2="14.11"
       gradientUnits="userSpaceOnUse">
      <stop
         offset="0.39"
         stop-color="#b3b3b3"
         id="stop9549" />
      <stop
         offset="0.49"
         stop-color="#b6b6b6"
         id="stop9551" />
      <stop
         offset="0.56"
         stop-color="#bfbfbf"
         id="stop9553" />
      <stop
         offset="0.62"
         stop-color="#cfcfcf"
         id="stop9555" />
      <stop
         offset="0.67"
         stop-color="#e4e4e4"
         id="stop9557" />
      <stop
         offset="0.72"
         stop-color="#fff"
         id="stop9559" />
      <stop
         offset="0.76"
         stop-color="#fff"
         id="stop9561" />
      <stop
         offset="0.99"
         stop-color="#fff"
         id="stop9563" />
    </linearGradient>
    <linearGradient
       id="linear-gradient-2"
       x1="25.48"
       y1="55.299999"
       x2="76.540001"
       y2="4.2399998"
       gradientUnits="userSpaceOnUse"
       gradientTransform="translate(-12.355117,0.00107935)">
      <stop
         offset="0"
         stop-color="#e6e6e6"
         id="stop9566" />
      <stop
         offset="1"
         stop-color="#fafafa"
         id="stop9568" />
    </linearGradient>
    <filter
       id="luminosity-noclip-2"
       x="12.33"
       y="0"
       width="75.220001"
       height="58.689999"
       filterUnits="userSpaceOnUse"
       color-interpolation-filters="sRGB">
      <feFlood
         flood-color="#fff"
         result="bg"
         id="feFlood9571" />
      <feBlend
         in="SourceGraphic"
         in2="bg"
         id="feBlend9573"
         mode="normal" />
    </filter>
    <mask
       id="mask-2"
       x="12.33"
       y="0"
       width="75.22"
       height="58.69"
       maskUnits="userSpaceOnUse">
      <g
         class="cls-1"
         mask="url(#mask)"
         id="g9578">
        <path
           class="cls-2"
           d="m 87.56,40.4 c 0,-5.8 -5.24,-10.56 -11.83,-10.88 A 11.09,11.09 0 0 0 69.63,26 10.59,10.59 0 0 0 61.93,20.45 L 61.16,19.82 62,11.88 A 4.43,4.43 0 0 0 57.14,7 l -7.92,0.87 -5,-6.22 a 4.43,4.43 0 0 0 -6.9,0 l -5,6.22 L 24.41,7 a 4.43,4.43 0 0 0 -4.88,4.88 L 20.39,19.8 14.46,24.57 14.2,24.78 14,25 a 4.43,4.43 0 0 0 0,6.89 l 6.36,5.11 -0.83,7.61 a 1.09,1.09 0 0 1 0,0.18 v 0.16 a 4.43,4.43 0 0 0 4.88,4.88 L 32.19,49 37.34,55.33 A 4.43,4.43 0 0 0 40.77,57 v 0 a 4.41,4.41 0 0 0 3.43,-1.64 l 0.56,-0.68 a 10.14,10.14 0 0 0 5.8,1.84 9.32,9.32 0 0 0 1.4,-0.1 15.13,15.13 0 0 0 8.21,2.32 14.67,14.67 0 0 0 9.83,-3.62 10.25,10.25 0 0 0 11,-4.69 10.8,10.8 0 0 0 6.54,-9.59 c 0,-0.06 0,-0.12 0,-0.18 0,-0.06 0.02,-0.17 0.02,-0.26 z"
           id="path9576" />
      </g>
    </mask>
    <linearGradient
       id="linear-gradient-3"
       x1="25.34"
       y1="55.439999"
       x2="66.68"
       y2="14.11"
       gradientUnits="userSpaceOnUse">
      <stop
         offset="0.39"
         stop-color="#fff"
         id="stop9581" />
      <stop
         offset="0.5"
         stop-color="#fcfcfc"
         id="stop9583" />
      <stop
         offset="0.58"
         stop-color="#f3f3f3"
         id="stop9585" />
      <stop
         offset="0.65"
         stop-color="#e3e3e3"
         id="stop9587" />
      <stop
         offset="0.71"
         stop-color="#cecece"
         id="stop9589" />
      <stop
         offset="0.72"
         stop-color="#c9c9c9"
         id="stop9591" />
      <stop
         offset="0.76"
         stop-color="#c9c9c9"
         id="stop9593" />
      <stop
         offset="0.99"
         stop-color="#c9c9c9"
         id="stop9595" />
    </linearGradient>
  </defs>
  <title
     id="title9600">sun_cloud</title>
  <path
     class="cls-26"
     d="m 75.204883,40.401079 c 0,-5.8 -5.24,-10.56 -11.83,-10.88 a 11.09,11.09 0 0 0 -6.1,-3.52 10.59,10.59 0 0 0 -7.7,-5.55 l -0.77,-0.63 0.84,-7.94 a 4.43,4.43 0 0 0 -4.86,-4.8799997 l -7.92,0.87 -5,-6.22 a 4.43,4.43 0 0 0 -6.9,0 l -5,6.22 -7.91,-0.87 A 4.43,4.43 0 0 0 7.1748833,11.881079 l 0.86,7.92 -5.93,4.77 -0.26,0.21 -0.2,0.22 a 4.43,4.43 0 0 0 0,6.89 l 6.36,5.11 -0.83,7.61 a 1.09,1.09 0 0 1 0,0.18 v 0.16 a 4.43,4.43 0 0 0 4.8799997,4.88 l 7.78,-0.83 5.15,6.33 a 4.43,4.43 0 0 0 3.43,1.67 v 0 a 4.41,4.41 0 0 0 3.43,-1.64 l 0.56,-0.68 a 10.14,10.14 0 0 0 5.8,1.84 9.32,9.32 0 0 0 1.4,-0.1 15.13,15.13 0 0 0 8.21,2.32 14.67,14.67 0 0 0 9.83,-3.62 10.25,10.25 0 0 0 11,-4.69 10.8,10.8 0 0 0 6.54,-9.59 c 0,-0.06 0,-0.12 0,-0.18 0,-0.06 0.02,-0.17 0.02,-0.26 z"
     id="path9646"
     style="isolation:isolate;fill:url(#linear-gradient-2)" />
  <g
     class="cls-33"
     mask="url(#mask-2)"
     id="g9669"
     style="isolation:isolate"
     transform="translate(-12.355117,0.00107935)">
    <path
       class="cls-34"
       d="m 87.56,40.4 c 0,-5.8 -5.24,-10.56 -11.83,-10.88 A 11.09,11.09 0 0 0 69.63,26 10.59,10.59 0 0 0 61.93,20.45 L 61.16,19.82 62,11.88 A 4.43,4.43 0 0 0 57.14,7 l -7.92,0.87 -5,-6.22 a 4.43,4.43 0 0 0 -6.9,0 l -5,6.22 L 24.41,7 a 4.43,4.43 0 0 0 -4.88,4.88 L 20.39,19.8 14.46,24.57 14.2,24.78 14,25 a 4.43,4.43 0 0 0 0,6.89 l 6.36,5.11 -0.83,7.61 a 1.09,1.09 0 0 1 0,0.18 v 0.16 a 4.43,4.43 0 0 0 4.88,4.88 L 32.19,49 37.34,55.33 A 4.43,4.43 0 0 0 40.77,57 v 0 a 4.41,4.41 0 0 0 3.43,-1.64 l 0.56,-0.68 a 10.14,10.14 0 0 0 5.8,1.84 9.32,9.32 0 0 0 1.4,-0.1 15.13,15.13 0 0 0 8.21,2.32 14.67,14.67 0 0 0 9.83,-3.62 10.25,10.25 0 0 0 11,-4.69 10.8,10.8 0 0 0 6.54,-9.59 c 0,-0.06 0,-0.12 0,-0.18 0,-0.06 0.02,-0.17 0.02,-0.26 z"
       id="path9667"
       style="fill:url(#linear-gradient-3)" />
  </g>
  <g
     id="sun_cloud-2"
     data-name="sun_cloud"
     style="isolation:isolate"
     transform="translate(-12.355117,0.00107935)">
    <path
       class="cls-27"
       d="M 40.77,14.23 A 14.36,14.36 0 1 0 55.13,28.59 14.35,14.35 0 0 0 40.77,14.23 Z"
       id="path9648" />
    <path
       class="cls-27"
       d="m 56.49,35.11 8.32,-6.69 -0.22,-0.17 -8.18,-6.44 1,-10.23 -10.17,1.06 -6.47,-7.87 -6.43,7.88 -10.28,-1.12 1.07,10.28 -8.13,6.42 -0.21,0.17 8.29,6.71 -1.11,10 v 0.35 l 10.2,-1.1 6.67,8.19 6.66,-8.21 10.19,1.13 z m -9.2,8.83 A 21.79,21.79 0 0 1 40.77,45.18 21.44,21.44 0 0 1 34.31,43.89 20,20 0 0 1 29.05,40.32 21.19,21.19 0 0 1 25.2,35 a 21.07,21.07 0 0 1 0,-12.89 21.19,21.19 0 0 1 3.85,-5.28 21,21 0 0 1 5.28,-3.83 21.07,21.07 0 0 1 12.89,0 21,21 0 0 1 9.12,9.13 20.87,20.87 0 0 1 0,12.89 20.9,20.9 0 0 1 -3.84,5.28 19.92,19.92 0 0 1 -5.21,3.64 z"
       id="path9650" />
    <path
       class="cls-28"
       d="M 55.13,28.25 A 14.36,14.36 0 1 1 40.77,13.89 14.35,14.35 0 0 1 55.13,28.25 Z"
       id="path9652" />
    <path
       class="cls-28"
       d="m 56.49,34.76 8.1,-6.51 -8.1,-6.51 1.13,-10.34 -10.33,1.13 -6.52,-8.1 -6.51,8.1 -10.33,-1.13 1.12,10.33 -8.05,6.52 8.1,6.51 -1.17,10.33 10.33,-1.09 6.51,8.1 6.52,-8.1 10.33,1.12 z m -9.27,9.06 a 21.07,21.07 0 0 1 -12.89,0 21.11,21.11 0 0 1 -9.13,-9.13 21.07,21.07 0 0 1 0,-12.89 21,21 0 0 1 9.13,-9.12 20.87,20.87 0 0 1 12.89,0 21.15,21.15 0 0 1 5.28,3.84 20.9,20.9 0 0 1 3.84,5.28 20.9,20.9 0 0 1 0,12.9 21.07,21.07 0 0 1 -9.12,9.12 z"
       id="path9654" />
    <path
       class="cls-29"
       d="M 40.77,28.24 A 127.58,127.58 0 0 1 55.11,29 c 0,-0.26 0,-0.52 0,-0.78 a 14.36,14.36 0 1 0 -28.71,0 c 0,0.26 0,0.52 0,0.78 a 127.54,127.54 0 0 1 14.37,-0.76 z"
       id="path9656" />
    <path
       class="cls-29"
       d="m 19.23,30.08 c 1.61,-0.29 3.28,-0.56 5,-0.78 0,-0.35 0,-0.7 0,-1.05 a 21.18,21.18 0 0 1 1,-6.45 21,21 0 0 1 9.13,-9.12 20.87,20.87 0 0 1 12.89,0 21.15,21.15 0 0 1 5.28,3.84 20.9,20.9 0 0 1 3.84,5.28 21.14,21.14 0 0 1 1,6.45 c 0,0.35 0,0.7 0,1.05 1.72,0.22 3.39,0.49 5,0.78 l 2.28,-1.83 -8.1,-6.51 1.07,-10.34 -10.33,1.13 -6.52,-8.1 -6.51,8.1 L 23.93,11.4 25.05,21.73 17,28.25 Z"
       id="path9658" />
    <path
       class="cls-30"
       d="m 75,34.37 a 10.18,10.18 0 0 0 -1.57,0.12 6.69,6.69 0 0 0 -6.12,-3.88 6.56,6.56 0 0 0 -0.9,0.07 A 6,6 0 0 0 54.52,30.2 5.55,5.55 0 0 0 53,30 6.23,6.23 0 0 0 47,35.84 5.81,5.81 0 0 0 44,35 6.48,6.48 0 0 0 44,47.94 5.29,5.29 0 0 0 44.9,47.86 6.09,6.09 0 0 0 50.57,52 5.74,5.74 0 0 0 53,51.51 a 10,10 0 0 0 7.2,2.75 c 4,0 7.34,-1.94 8.43,-4.61 a 5.81,5.81 0 0 0 3.62,1.29 6.07,6.07 0 0 0 5.61,-4 c 3.09,-0.91 5.29,-3.29 5.29,-6.07 -0.02,-3.6 -3.65,-6.5 -8.15,-6.5 z"
       id="path9660" />
    <path
       class="cls-31"
       d="m 75,33.93 a 10.18,10.18 0 0 0 -1.57,0.12 6.67,6.67 0 0 0 -6.12,-3.88 6.58,6.58 0 0 0 -0.9,0.06 6,6 0 0 0 -11.89,-0.47 5.55,5.55 0 0 0 -1.52,-0.22 6.23,6.23 0 0 0 -6,5.84 5.82,5.82 0 0 0 -3,-0.83 6.5,6.5 0 0 0 0,13 6.55,6.55 0 0 0 0.9,-0.08 6.09,6.09 0 0 0 5.66,4.18 5.74,5.74 0 0 0 2.44,-0.58 10,10 0 0 0 7.2,2.75 c 4,0 7.34,-2 8.43,-4.62 a 5.76,5.76 0 0 0 3.62,1.29 6.06,6.06 0 0 0 5.61,-4 C 80.95,45.57 83.15,43.2 83.15,40.42 83.13,36.82 79.5,33.93 75,33.93 Z"
       id="path9662" />
    <path
       class="cls-32"
       d="M 60.54,39.23 A 85.64,85.64 0 0 1 82.89,42 5.15,5.15 0 0 0 83.13,40.43 c 0,-3.58 -3.63,-6.47 -8.11,-6.47 A 10.18,10.18 0 0 0 73.45,34.08 6.67,6.67 0 0 0 67.33,30.2 6.58,6.58 0 0 0 66.43,30.26 6,6 0 0 0 54.54,29.79 5.55,5.55 0 0 0 53,29.54 6.23,6.23 0 0 0 47,35.38 5.82,5.82 0 0 0 44,34.55 6.28,6.28 0 0 0 38,41 a 6.63,6.63 0 0 0 0,1 85.23,85.23 0 0 1 22.54,-2.77 z"
       id="path9664" />
  </g>
</svg>
